<?xml version="1.0" encoding="UTF-8"?>
<svg xmlns="http://www.w3.org/2000/svg" xmlns:xlink="http://www.w3.org/1999/xlink" width="180px" height="180px" viewBox="0 0 180 180" version="1.1">
<g id="surface1">
<path style=" stroke:none;fill-rule:nonzero;fill:rgb(0%,0%,0%);fill-opacity:1;" d="M 48.496094 34.070312 C 36.15625 35.089844 25.640625 42.957031 21.167969 54.507812 C 19.109375 59.828125 18.558594 66.464844 19.714844 72.105469 C 21.242188 79.632812 25.300781 86.191406 31.371094 91.007812 C 34.585938 93.554688 38.941406 95.660156 43.253906 96.769531 C 47.027344 97.746094 52.125 97.96875 55.917969 97.332031 C 70.3125 94.917969 81.007812 83.71875 82.667969 69.335938 C 82.890625 67.320312 82.773438 62.449219 82.445312 60.65625 C 81.410156 55.011719 79.15625 50.007812 75.734375 45.769531 C 73.660156 43.222656 70.242188 40.246094 67.382812 38.527344 C 61.8125 35.195312 54.820312 33.550781 48.496094 34.070312 Z M 55.042969 36.824219 C 63.839844 37.980469 72.003906 43.488281 76.433594 51.28125 C 78.015625 54.066406 79.082031 56.894531 79.792969 60.257812 C 80.179688 62.019531 80.195312 62.375 80.195312 65.839844 C 80.195312 69.320312 80.179688 69.664062 79.792969 71.46875 C 78.550781 77.335938 76.046875 82.105469 72.078125 86.191406 C 69.589844 88.742188 67.394531 90.386719 64.390625 91.925781 C 60.078125 94.132812 55.945312 95.125 51.027344 95.140625 C 46.273438 95.167969 42.453125 94.296875 38.140625 92.207031 C 34.855469 90.621094 32.394531 88.828125 29.847656 86.179688 C 24.246094 80.355469 21.402344 72.949219 21.671875 64.878906 C 21.820312 60.390625 22.738281 56.746094 24.75 52.703125 C 28.558594 45.074219 35.535156 39.476562 43.828125 37.417969 C 47.652344 36.453125 50.953125 36.289062 55.042969 36.824219 Z M 55.042969 36.824219 "/>
<path style=" stroke:none;fill-rule:nonzero;fill:rgb(0%,0%,0%);fill-opacity:1;" d="M 32.882812 54.507812 L 32.882812 66.0625 L 35.90625 66.0625 C 38.378906 66.0625 38.957031 66.019531 39.105469 65.839844 C 39.207031 65.722656 39.859375 65.308594 40.570312 64.9375 C 42.628906 63.8125 46.140625 61.828125 48.183594 60.597656 L 50.09375 59.472656 L 46.453125 59.425781 L 42.808594 59.398438 L 42.808594 50.660156 L 47.960938 50.660156 C 53.355469 50.660156 54.050781 50.730469 55.5625 51.371094 C 56.421875 51.738281 57.265625 52.464844 57.605469 53.148438 L 57.871094 53.664062 L 58.464844 52.867188 C 58.804688 52.421875 59.25 51.710938 59.457031 51.28125 C 59.960938 50.273438 60.6875 48.109375 60.804688 47.207031 C 60.910156 46.496094 60.910156 46.496094 60.167969 45.769531 C 58.984375 44.628906 57.160156 43.875 54.152344 43.253906 C 52.777344 42.972656 52.140625 42.957031 42.792969 42.957031 L 32.882812 42.957031 Z M 32.882812 54.507812 "/>
<path style=" stroke:none;fill-rule:nonzero;fill:rgb(0%,0%,0%);fill-opacity:1;" d="M 61.027344 62.507812 C 59.339844 63.691406 57.488281 64.523438 54.777344 65.308594 C 51.160156 66.359375 51.265625 66.300781 52.804688 66.417969 C 54.582031 66.566406 56.789062 67.054688 57.664062 67.484375 C 59.277344 68.316406 60.300781 69.914062 60.40625 71.796875 C 60.464844 72.742188 60.417969 72.980469 60.035156 73.808594 C 59.5 74.9375 58.347656 76.121094 57.265625 76.652344 C 55.8125 77.363281 54.6875 77.46875 48.644531 77.46875 L 43.105469 77.46875 L 43.105469 85.761719 L 46.554688 85.75 C 48.4375 85.75 51.753906 85.691406 53.917969 85.617188 C 57.488281 85.511719 57.976562 85.46875 59.308594 85.113281 C 62.285156 84.3125 63.914062 83.453125 65.441406 81.882812 C 68.003906 79.246094 68.921875 76.890625 68.9375 72.875 C 68.9375 70.417969 68.773438 69.425781 68.046875 67.871094 C 67.027344 65.648438 65.367188 63.796875 63.277344 62.582031 C 62.65625 62.210938 62.078125 61.914062 61.988281 61.929688 C 61.914062 61.945312 61.472656 62.195312 61.027344 62.507812 Z M 61.027344 62.507812 "/>
<path style=" stroke:none;fill-rule:nonzero;fill:rgb(0%,0%,0%);fill-opacity:1;" d="M 129.164062 46.820312 C 128.554688 46.96875 127.699219 47.324219 127.269531 47.59375 C 125.445312 48.671875 124.082031 51.042969 123.757812 53.679688 L 123.652344 54.507812 L 127.34375 54.507812 L 127.535156 53.652344 C 127.90625 51.960938 128.585938 50.96875 129.816406 50.332031 C 130.304688 50.066406 130.691406 50.007812 131.757812 49.992188 C 132.957031 49.992188 133.164062 50.035156 133.890625 50.4375 C 135.816406 51.503906 136.554688 53.429688 135.828125 55.515625 C 135.265625 57.132812 134.347656 58.332031 125.785156 68.683594 L 122.941406 72.136719 L 139.828125 72.136719 L 139.828125 68.582031 L 135.164062 68.550781 L 130.511719 68.507812 L 133.253906 65.25 C 138.167969 59.425781 139.371094 57.546875 139.710938 55.160156 C 140.035156 52.835938 139.308594 50.585938 137.679688 48.953125 C 137.175781 48.453125 136.40625 47.828125 135.949219 47.578125 C 134.140625 46.539062 131.386719 46.230469 129.164062 46.820312 Z M 129.164062 46.820312 "/>
<path style=" stroke:none;fill-rule:nonzero;fill:rgb(0%,0%,0%);fill-opacity:1;" d="M 105.019531 59.546875 L 105.019531 72.136719 L 108.722656 72.136719 L 108.722656 61.769531 L 109.09375 61.769531 C 109.402344 61.769531 109.980469 62.523438 113.046875 66.953125 L 116.648438 72.121094 L 119.003906 72.136719 C 121.238281 72.136719 121.34375 72.121094 121.136719 71.871094 C 120.75 71.441406 113.746094 61.738281 113.671875 61.546875 C 113.625 61.441406 113.863281 61.292969 114.234375 61.191406 C 116.542969 60.507812 118.484375 58.273438 118.957031 55.769531 C 119.046875 55.28125 119.089844 54.347656 119.046875 53.695312 C 118.839844 50.71875 117.078125 48.464844 114.246094 47.5625 C 112.722656 47.089844 111.464844 46.957031 108.101562 46.957031 L 105.019531 46.957031 Z M 112.5 50.730469 C 113.640625 51.027344 114.410156 51.578125 114.914062 52.421875 C 115.269531 53.027344 115.3125 53.25 115.3125 54.433594 C 115.3125 55.636719 115.269531 55.84375 114.898438 56.480469 C 114.128906 57.78125 112.855469 58.347656 110.398438 58.464844 L 108.722656 58.554688 L 108.722656 50.511719 L 110.175781 50.511719 C 111.003906 50.511719 111.996094 50.613281 112.5 50.730469 Z M 112.5 50.730469 "/>
<path style=" stroke:none;fill-rule:nonzero;fill:rgb(0%,0%,0%);fill-opacity:1;" d="M 87.097656 62.582031 L 87.097656 72.285156 L 90.058594 72.285156 L 90.058594 71.617188 C 90.058594 71.246094 90.105469 70.953125 90.148438 70.953125 C 90.191406 70.953125 90.472656 71.144531 90.769531 71.394531 C 92.695312 72.9375 95.6875 72.949219 97.6875 71.425781 C 99.183594 70.285156 100.027344 68.757812 100.28125 66.699219 C 100.8125 62.566406 98.296875 59.042969 94.664062 58.835938 C 93.167969 58.746094 92.148438 59.042969 90.960938 59.917969 L 90.058594 60.582031 L 90.058594 52.878906 L 87.097656 52.878906 Z M 95.019531 61.753906 C 95.71875 62.0625 96.664062 63.054688 96.976562 63.796875 C 97.539062 65.175781 97.332031 67.320312 96.503906 68.433594 C 94.933594 70.566406 91.703125 70.328125 90.429688 67.988281 C 90.015625 67.234375 89.984375 67.054688 89.984375 65.691406 C 89.984375 64.332031 90.015625 64.152344 90.429688 63.410156 C 91.140625 62.136719 92.222656 61.484375 93.6875 61.484375 C 94.101562 61.484375 94.695312 61.605469 95.019531 61.753906 Z M 95.019531 61.753906 "/>
<path style=" stroke:none;fill-rule:nonzero;fill:rgb(0%,0%,0%);fill-opacity:1;" d="M 92.667969 62.285156 C 90.859375 62.921875 89.96875 65.484375 90.917969 67.335938 C 91.570312 68.625 92.636719 69.277344 93.851562 69.128906 C 95.777344 68.921875 97.019531 66.640625 96.429688 64.476562 C 96.160156 63.574219 95.109375 62.449219 94.28125 62.226562 C 93.539062 62.019531 93.378906 62.035156 92.667969 62.285156 Z M 92.667969 62.285156 "/>
<path style=" stroke:none;fill-rule:nonzero;fill:rgb(0%,0%,0%);fill-opacity:1;" d="M 145.308594 57.992188 L 145.308594 59.695312 L 149.308594 59.722656 L 153.292969 59.769531 L 149.117188 64.820312 C 146.820312 67.605469 144.523438 70.386719 144.007812 71.011719 L 143.074219 72.136719 L 159.824219 72.136719 L 159.824219 68.730469 L 155.070312 68.699219 L 150.316406 68.65625 L 155.441406 62.464844 L 160.566406 56.285156 L 145.308594 56.285156 Z M 145.308594 57.992188 "/>
<path style=" stroke:none;fill-rule:nonzero;fill:rgb(0%,0%,0%);fill-opacity:1;" d="M 96.578125 79.320312 L 96.578125 82.949219 L 97.019531 82.949219 C 97.300781 82.949219 97.464844 82.875 97.464844 82.742188 C 97.464844 82.578125 97.582031 82.59375 98.011719 82.816406 C 98.695312 83.15625 98.976562 83.171875 99.644531 82.859375 C 101.539062 81.957031 100.945312 78.652344 98.886719 78.652344 C 98.457031 78.652344 98.117188 78.757812 97.851562 78.964844 L 97.464844 79.261719 L 97.464844 75.691406 L 96.578125 75.691406 Z M 99.523438 79.925781 C 99.96875 80.492188 99.9375 81.378906 99.464844 81.839844 C 98.679688 82.625 97.464844 82.0625 97.464844 80.90625 C 97.464844 80.0625 97.925781 79.542969 98.652344 79.542969 C 99.09375 79.542969 99.289062 79.632812 99.523438 79.925781 Z M 99.523438 79.925781 "/>
<path style=" stroke:none;fill-rule:nonzero;fill:rgb(0%,0%,0%);fill-opacity:1;" d="M 101.019531 76.285156 L 101.019531 76.875 L 100.503906 76.652344 C 99.984375 76.445312 99.96875 76.445312 99.835938 76.816406 C 99.746094 77.023438 99.6875 77.21875 99.6875 77.246094 C 99.6875 77.261719 99.925781 77.335938 100.207031 77.378906 C 100.8125 77.5 100.8125 77.527344 100.429688 78.015625 C 100.144531 78.371094 100.144531 78.417969 100.367188 78.683594 C 100.710938 79.039062 100.753906 79.023438 101.066406 78.476562 L 101.347656 77.988281 L 101.746094 78.476562 C 102.132812 78.964844 102.144531 78.964844 102.398438 78.683594 C 102.636719 78.417969 102.636719 78.386719 102.355469 78.015625 C 101.96875 77.527344 101.96875 77.5 102.574219 77.378906 C 103.050781 77.289062 103.078125 77.246094 103.003906 76.890625 C 102.871094 76.386719 102.917969 76.402344 102.308594 76.652344 L 101.761719 76.875 L 101.761719 76.285156 C 101.761719 75.75 101.730469 75.691406 101.390625 75.691406 C 101.050781 75.691406 101.019531 75.75 101.019531 76.285156 Z M 101.019531 76.285156 "/>
<path style=" stroke:none;fill-rule:nonzero;fill:rgb(0%,0%,0%);fill-opacity:1;" d="M 114.648438 79.320312 L 114.648438 82.949219 L 115.535156 82.949219 L 115.535156 81.570312 C 115.535156 79.925781 115.730469 79.542969 116.5 79.542969 C 117.195312 79.542969 117.3125 79.839844 117.3125 81.527344 L 117.3125 82.949219 L 118.203125 82.949219 L 118.203125 81.230469 C 118.203125 79.542969 118.203125 79.511719 117.773438 79.082031 C 117.269531 78.59375 116.425781 78.492188 115.863281 78.890625 L 115.535156 79.113281 L 115.535156 75.691406 L 114.648438 75.691406 Z M 114.648438 79.320312 "/>
<path style=" stroke:none;fill-rule:nonzero;fill:rgb(0%,0%,0%);fill-opacity:1;" d="M 90.5625 76.3125 C 90.503906 76.507812 89.808594 78.046875 89.007812 79.765625 C 88.191406 81.46875 87.542969 82.875 87.542969 82.90625 C 87.542969 82.933594 87.761719 82.949219 88.042969 82.949219 C 88.519531 82.949219 88.578125 82.890625 88.933594 82.132812 L 89.304688 81.320312 L 92.25 81.320312 L 92.578125 82.132812 C 92.886719 82.90625 92.933594 82.949219 93.421875 82.949219 C 93.851562 82.949219 93.925781 82.90625 93.835938 82.683594 C 93.4375 81.617188 90.859375 75.988281 90.769531 75.988281 C 90.710938 75.988281 90.621094 76.136719 90.5625 76.3125 Z M 91.347656 79.277344 L 91.808594 80.355469 L 90.84375 80.402344 C 90.3125 80.429688 89.851562 80.417969 89.820312 80.386719 C 89.734375 80.3125 90.667969 78.210938 90.785156 78.210938 C 90.84375 78.210938 91.097656 78.699219 91.347656 79.277344 Z M 91.347656 79.277344 "/>
<path style=" stroke:none;fill-rule:nonzero;fill:rgb(0%,0%,0%);fill-opacity:1;" d="M 125.757812 76.269531 C 124.054688 76.816406 123.136719 78.195312 123.269531 79.988281 C 123.34375 81.082031 123.890625 81.925781 124.925781 82.578125 C 125.519531 82.933594 125.816406 83.023438 126.558594 83.023438 C 127.0625 83.023438 127.683594 82.933594 127.949219 82.816406 C 128.363281 82.636719 128.421875 82.550781 128.421875 82.0625 L 128.421875 81.511719 L 127.699219 81.882812 C 127.121094 82.164062 126.839844 82.222656 126.378906 82.132812 C 124.808594 81.882812 123.875 80.445312 124.277344 78.964844 C 124.707031 77.351562 126.410156 76.625 127.890625 77.394531 C 128.4375 77.691406 128.421875 77.691406 128.421875 77.097656 C 128.421875 76.667969 128.347656 76.550781 128.023438 76.402344 C 127.476562 76.195312 126.230469 76.121094 125.757812 76.269531 Z M 125.757812 76.269531 "/>
<path style=" stroke:none;fill-rule:nonzero;fill:rgb(0%,0%,0%);fill-opacity:1;" d="M 103.539062 79.617188 L 103.539062 82.949219 L 104.425781 82.949219 L 104.425781 81.527344 C 104.425781 79.839844 104.441406 79.839844 105.714844 81.703125 C 106.53125 82.90625 106.574219 82.949219 107.125 82.949219 C 107.789062 82.949219 107.820312 83.054688 106.621094 81.363281 C 106.144531 80.710938 105.761719 80.121094 105.761719 80.074219 C 105.761719 80.03125 105.847656 79.988281 105.96875 79.988281 C 106.324219 79.988281 107.050781 79.140625 107.152344 78.59375 C 107.210938 78.269531 107.167969 77.867188 107.003906 77.46875 C 106.679688 76.640625 105.9375 76.296875 104.546875 76.285156 L 103.539062 76.285156 Z M 105.65625 77.335938 C 106.101562 77.574219 106.203125 77.75 106.203125 78.296875 C 106.203125 78.875 105.847656 79.203125 105.050781 79.335938 L 104.425781 79.4375 L 104.425781 77.171875 L 104.886719 77.171875 C 105.136719 77.171875 105.480469 77.246094 105.65625 77.335938 Z M 105.65625 77.335938 "/>
<path style=" stroke:none;fill-rule:nonzero;fill:rgb(0%,0%,0%);fill-opacity:1;" d="M 107.9375 76.519531 C 107.730469 76.742188 107.847656 77.320312 108.128906 77.46875 C 108.589844 77.707031 109.046875 77.410156 108.988281 76.90625 C 108.960938 76.578125 108.855469 76.492188 108.5 76.460938 C 108.25 76.433594 107.996094 76.460938 107.9375 76.519531 Z M 107.9375 76.519531 "/>
<path style=" stroke:none;fill-rule:nonzero;fill:rgb(0%,0%,0%);fill-opacity:1;" d="M 119.089844 77.988281 C 119.089844 78.609375 119.046875 78.800781 118.871094 78.800781 C 118.734375 78.800781 118.648438 78.933594 118.648438 79.171875 C 118.648438 79.410156 118.734375 79.542969 118.871094 79.542969 C 119.046875 79.542969 119.089844 79.824219 119.089844 81.246094 L 119.089844 82.949219 L 119.964844 82.949219 L 120.011719 81.277344 C 120.054688 79.675781 120.070312 79.617188 120.394531 79.570312 C 120.632812 79.542969 120.722656 79.425781 120.722656 79.171875 C 120.722656 78.921875 120.632812 78.800781 120.394531 78.773438 C 120.097656 78.726562 120.054688 78.625 120.011719 77.941406 C 119.964844 77.203125 119.949219 77.171875 119.519531 77.171875 C 119.089844 77.171875 119.089844 77.1875 119.089844 77.988281 Z M 119.089844 77.988281 "/>
<path style=" stroke:none;fill-rule:nonzero;fill:rgb(0%,0%,0%);fill-opacity:1;" d="M 110.441406 78.964844 C 109.878906 79.410156 109.582031 80.074219 109.582031 80.875 C 109.582031 82.550781 110.960938 83.527344 112.320312 82.832031 L 112.871094 82.535156 L 112.871094 83.128906 C 112.871094 84.3125 111.730469 84.832031 110.945312 83.984375 C 110.691406 83.71875 110.382812 83.542969 110.144531 83.542969 C 109.699219 83.542969 109.671875 83.675781 109.980469 84.28125 C 110.605469 85.496094 112.738281 85.542969 113.460938 84.355469 C 113.730469 83.925781 113.757812 83.617188 113.757812 81.335938 L 113.757812 78.800781 L 113.328125 78.800781 C 113.09375 78.800781 112.871094 78.875 112.839844 78.980469 C 112.796875 79.097656 112.679688 79.082031 112.425781 78.90625 C 111.921875 78.550781 110.929688 78.578125 110.441406 78.964844 Z M 112.558594 79.925781 C 113.003906 80.492188 112.972656 81.378906 112.5 81.839844 C 111.714844 82.625 110.5 82.0625 110.5 80.90625 C 110.5 80.0625 110.960938 79.542969 111.683594 79.542969 C 112.128906 79.542969 112.320312 79.632812 112.558594 79.925781 Z M 112.558594 79.925781 "/>
<path style=" stroke:none;fill-rule:nonzero;fill:rgb(0%,0%,0%);fill-opacity:1;" d="M 130.261719 78.785156 C 130.097656 78.859375 129.757812 79.15625 129.488281 79.453125 C 129.089844 79.914062 129.015625 80.121094 129.015625 80.742188 C 129.015625 81.972656 129.726562 82.859375 130.851562 83.054688 C 131.949219 83.230469 133.191406 82.34375 133.398438 81.246094 C 133.535156 80.519531 133.117188 79.484375 132.542969 79.070312 C 132.039062 78.714844 130.792969 78.566406 130.261719 78.785156 Z M 132.113281 79.925781 C 132.808594 80.800781 132.273438 82.207031 131.253906 82.207031 C 130.617188 82.207031 130.363281 82.074219 130.125 81.601562 C 129.816406 81.023438 129.84375 80.386719 130.214844 79.925781 C 130.453125 79.617188 130.644531 79.542969 131.164062 79.542969 C 131.683594 79.542969 131.875 79.617188 132.113281 79.925781 Z M 132.113281 79.925781 "/>
<path style=" stroke:none;fill-rule:nonzero;fill:rgb(0%,0%,0%);fill-opacity:1;" d="M 135.265625 78.890625 C 135.089844 79.007812 134.941406 79.039062 134.941406 78.964844 C 134.941406 78.875 134.75 78.800781 134.496094 78.800781 L 134.050781 78.800781 L 134.050781 82.949219 L 134.910156 82.949219 L 134.96875 81.484375 C 135.03125 79.867188 135.179688 79.542969 135.828125 79.542969 C 136.363281 79.542969 136.421875 79.71875 136.421875 81.484375 L 136.421875 82.949219 L 137.457031 82.949219 L 137.457031 81.496094 C 137.457031 79.824219 137.605469 79.484375 138.273438 79.570312 C 138.820312 79.632812 138.910156 79.925781 138.925781 81.644531 L 138.941406 82.949219 L 139.859375 82.949219 L 139.800781 81.1875 C 139.753906 79.558594 139.726562 79.394531 139.398438 79.039062 C 138.96875 78.578125 138.097656 78.519531 137.53125 78.890625 C 137.207031 79.097656 137.148438 79.097656 136.835938 78.890625 C 136.40625 78.59375 135.695312 78.59375 135.265625 78.890625 Z M 135.265625 78.890625 "/>
<path style=" stroke:none;fill-rule:nonzero;fill:rgb(0%,0%,0%);fill-opacity:1;" d="M 142.167969 78.890625 C 141.933594 79.007812 141.753906 79.039062 141.753906 78.949219 C 141.753906 78.875 141.515625 78.800781 141.234375 78.800781 L 140.71875 78.800781 L 140.71875 85.171875 L 141.753906 85.171875 L 141.753906 82.503906 L 142.242188 82.800781 C 142.851562 83.171875 143.324219 83.171875 143.945312 82.800781 C 144.984375 82.164062 145.308594 80.847656 144.71875 79.691406 C 144.226562 78.726562 143.101562 78.371094 142.167969 78.890625 Z M 143.53125 79.691406 C 143.871094 79.867188 144.183594 80.773438 144.050781 81.203125 C 143.578125 82.742188 141.679688 82.417969 141.679688 80.800781 C 141.679688 79.988281 142.050781 79.542969 142.746094 79.542969 C 143.027344 79.542969 143.382812 79.601562 143.53125 79.691406 Z M 143.53125 79.691406 "/>
<path style=" stroke:none;fill-rule:nonzero;fill:rgb(0%,0%,0%);fill-opacity:1;" d="M 146.390625 78.964844 C 145.886719 79.289062 145.457031 80.164062 145.457031 80.890625 C 145.457031 82.386719 146.9375 83.484375 148.152344 82.890625 C 148.449219 82.726562 148.65625 82.699219 148.6875 82.800781 C 148.714844 82.875 148.96875 82.949219 149.25 82.949219 L 149.753906 82.949219 L 149.753906 78.800781 L 149.234375 78.800781 C 148.953125 78.800781 148.714844 78.875 148.714844 78.949219 C 148.714844 79.039062 148.523438 79.007812 148.273438 78.875 C 147.679688 78.566406 146.953125 78.59375 146.390625 78.964844 Z M 148.464844 79.808594 C 149.011719 80.417969 148.894531 81.734375 148.257812 82.0625 C 147.753906 82.34375 147.132812 82.238281 146.804688 81.824219 C 146.390625 81.289062 146.375 80.253906 146.789062 79.839844 C 147.175781 79.453125 148.125 79.4375 148.464844 79.808594 Z M 148.464844 79.808594 "/>
<path style=" stroke:none;fill-rule:nonzero;fill:rgb(0%,0%,0%);fill-opacity:1;" d="M 151.855469 78.890625 C 151.679688 79.007812 151.53125 79.039062 151.53125 78.964844 C 151.53125 78.875 151.292969 78.800781 151.011719 78.800781 L 150.492188 78.800781 L 150.492188 82.949219 L 151.53125 82.949219 L 151.53125 81.527344 C 151.53125 80.757812 151.605469 79.988281 151.679688 79.824219 C 151.886719 79.453125 152.9375 79.425781 153.070312 79.78125 C 153.117188 79.914062 153.160156 80.667969 153.160156 81.484375 L 153.160156 82.949219 L 154.195312 82.949219 L 154.195312 81.46875 C 154.195312 79.855469 153.988281 79.082031 153.484375 78.816406 C 153.042969 78.578125 152.242188 78.625 151.855469 78.890625 Z M 151.855469 78.890625 "/>
<path style=" stroke:none;fill-rule:nonzero;fill:rgb(0%,0%,0%);fill-opacity:1;" d="M 107.980469 80.875 L 107.980469 82.949219 L 108.871094 82.949219 L 108.871094 78.800781 L 107.980469 78.800781 Z M 107.980469 80.875 "/>
<path style=" stroke:none;fill-rule:nonzero;fill:rgb(0%,0%,0%);fill-opacity:1;" d="M 154.953125 79.941406 C 155.308594 80.578125 155.722656 81.335938 155.886719 81.632812 L 156.167969 82.148438 L 155.410156 83.617188 C 154.980469 84.414062 154.640625 85.097656 154.640625 85.125 C 154.640625 85.15625 154.878906 85.171875 155.160156 85.140625 C 155.691406 85.097656 155.691406 85.097656 157.308594 81.941406 L 158.9375 78.800781 L 158.417969 78.800781 C 157.914062 78.800781 157.871094 78.847656 157.351562 79.914062 C 157.039062 80.519531 156.746094 81.007812 156.671875 80.980469 C 156.609375 80.964844 156.300781 80.476562 155.988281 79.914062 C 155.472656 78.933594 155.398438 78.875 154.878906 78.832031 L 154.316406 78.785156 Z M 154.953125 79.941406 "/>
<path style=" stroke:none;fill-rule:nonzero;fill:rgb(0%,0%,0%);fill-opacity:1;" d="M 28.734375 123.238281 L 28.734375 128.570312 L 29.625 128.570312 L 29.625 117.90625 L 28.734375 117.90625 Z M 28.734375 123.238281 "/>
<path style=" stroke:none;fill-rule:nonzero;fill:rgb(0%,0%,0%);fill-opacity:1;" d="M 36.882812 120.660156 L 36.882812 123.417969 L 36.304688 122.957031 C 35.28125 122.144531 34.320312 121.996094 33.253906 122.484375 C 32.097656 123.003906 31.402344 124.15625 31.402344 125.550781 C 31.402344 126.320312 32.023438 127.578125 32.644531 128.054688 C 33.742188 128.882812 35.503906 128.792969 36.347656 127.84375 C 36.75 127.402344 36.882812 127.460938 36.882812 128.054688 C 36.882812 128.527344 36.914062 128.570312 37.328125 128.570312 L 37.773438 128.570312 L 37.773438 117.90625 L 36.882812 117.90625 Z M 35.832031 123.519531 C 36.558594 124.039062 36.824219 124.734375 36.765625 125.949219 C 36.71875 126.542969 35.773438 127.519531 35.0625 127.683594 C 32.972656 128.140625 31.460938 125.609375 32.839844 123.964844 C 33.625 123.046875 34.898438 122.855469 35.832031 123.519531 Z M 35.832031 123.519531 "/>
<path style=" stroke:none;fill-rule:nonzero;fill:rgb(0%,0%,0%);fill-opacity:1;" d="M 102.945312 123.238281 L 102.945312 128.570312 L 104.871094 128.570312 L 104.871094 127.046875 C 104.871094 124.75 105.242188 123.832031 106.175781 123.832031 C 107.019531 123.832031 107.167969 124.214844 107.210938 126.511719 L 107.269531 128.570312 L 109.167969 128.570312 L 109.167969 126.230469 C 109.167969 123.59375 109.035156 123.136719 108.128906 122.527344 C 107.464844 122.070312 106.203125 122.113281 105.507812 122.617188 C 105.257812 122.792969 105.003906 122.941406 104.960938 122.941406 C 104.917969 122.941406 104.871094 121.800781 104.871094 120.425781 L 104.871094 117.90625 L 102.945312 117.90625 Z M 102.945312 123.238281 "/>
<path style=" stroke:none;fill-rule:nonzero;fill:rgb(0%,0%,0%);fill-opacity:1;" d="M 133.828125 118.039062 C 133.074219 118.351562 132.941406 118.722656 132.898438 120.585938 L 132.835938 122.351562 L 132.1875 122.351562 C 131.59375 122.351562 131.535156 122.378906 131.535156 122.707031 C 131.535156 123.03125 131.609375 123.074219 132.171875 123.121094 L 132.792969 123.164062 L 132.835938 125.859375 L 132.867188 128.570312 L 133.753906 128.570312 L 133.785156 125.859375 L 133.828125 123.164062 L 134.613281 123.121094 C 135.324219 123.074219 135.386719 123.046875 135.386719 122.707031 C 135.386719 122.363281 135.339844 122.351562 134.570312 122.351562 L 133.753906 122.351562 L 133.753906 120.75 C 133.753906 119.699219 133.816406 119.089844 133.933594 118.972656 C 134.039062 118.871094 134.394531 118.796875 134.75 118.796875 C 135.355469 118.796875 135.386719 118.78125 135.386719 118.351562 C 135.386719 117.921875 135.355469 117.90625 134.761719 117.921875 C 134.40625 117.921875 133.992188 117.980469 133.828125 118.039062 Z M 133.828125 118.039062 "/>
<path style=" stroke:none;fill-rule:nonzero;fill:rgb(0%,0%,0%);fill-opacity:1;" d="M 10.367188 123.773438 L 10.367188 128.617188 L 12.414062 128.542969 C 14.144531 128.484375 14.5625 128.421875 15.152344 128.140625 C 16.117188 127.667969 16.484375 127.089844 16.558594 125.964844 C 16.632812 124.824219 16.25 124.023438 15.40625 123.550781 L 14.84375 123.238281 L 15.257812 122.808594 C 16.027344 122.039062 16.128906 120.558594 15.449219 119.800781 C 14.871094 119.152344 14.117188 118.945312 12.191406 118.945312 L 10.367188 118.945312 Z M 13.433594 119.816406 C 14.695312 119.996094 15.242188 120.734375 14.945312 121.832031 C 14.722656 122.632812 14.203125 122.855469 12.664062 122.867188 L 11.332031 122.867188 L 11.285156 121.476562 C 11.273438 120.707031 11.273438 119.996094 11.316406 119.875 C 11.40625 119.667969 12.191406 119.640625 13.433594 119.816406 Z M 15.125 124.410156 C 15.613281 124.898438 15.699219 125.074219 15.699219 125.625 C 15.699219 126.453125 15.257812 127.195312 14.589844 127.476562 C 14.265625 127.609375 13.566406 127.683594 12.664062 127.683594 L 11.257812 127.683594 L 11.257812 123.832031 L 14.546875 123.832031 Z M 15.125 124.410156 "/>
<path style=" stroke:none;fill-rule:nonzero;fill:rgb(0%,0%,0%);fill-opacity:1;" d="M 74.359375 123.757812 L 74.359375 128.601562 L 76.773438 128.542969 C 78.859375 128.484375 79.246094 128.4375 79.78125 128.15625 C 81.644531 127.195312 81.542969 124.261719 79.632812 123.535156 L 79.214844 123.386719 L 79.601562 123.015625 C 80.683594 122.023438 80.492188 120.277344 79.203125 119.328125 C 78.832031 119.046875 78.535156 119.015625 76.566406 118.972656 L 74.359375 118.929688 Z M 78.003906 120.882812 C 78.800781 121.625 78.222656 122.792969 77.070312 122.792969 L 76.433594 122.792969 L 76.433594 120.378906 L 77.039062 120.46875 C 77.378906 120.511719 77.808594 120.691406 78.003906 120.882812 Z M 78.429688 124.660156 C 78.699219 124.765625 79.097656 125.476562 79.097656 125.832031 C 79.097656 125.964844 78.90625 126.277344 78.667969 126.511719 C 78.285156 126.898438 78.136719 126.941406 77.335938 126.941406 L 76.433594 126.941406 L 76.433594 124.570312 L 77.304688 124.570312 C 77.792969 124.570312 78.296875 124.617188 78.429688 124.660156 Z M 78.429688 124.660156 "/>
<path style=" stroke:none;fill-rule:nonzero;fill:rgb(0%,0%,0%);fill-opacity:1;" d="M 82.207031 123.757812 L 82.207031 128.570312 L 84.269531 128.570312 L 84.3125 126.824219 L 84.355469 125.089844 L 85.527344 126.824219 L 86.695312 128.570312 L 87.941406 128.570312 C 88.609375 128.570312 89.171875 128.527344 89.171875 128.484375 C 89.171875 128.4375 88.609375 127.683594 87.910156 126.792969 C 86.667969 125.210938 86.476562 124.867188 86.84375 124.867188 C 87.199219 124.867188 88.179688 123.933594 88.445312 123.328125 C 88.949219 122.21875 88.726562 120.707031 87.941406 119.847656 C 87.257812 119.121094 86.609375 118.945312 84.328125 118.945312 L 82.207031 118.945312 Z M 86.386719 121.003906 C 86.949219 121.625 86.949219 122.335938 86.386719 122.957031 C 86.03125 123.359375 85.867188 123.417969 85.171875 123.429688 L 84.355469 123.460938 L 84.3125 121.921875 L 84.269531 120.378906 L 85.113281 120.453125 C 85.835938 120.511719 86.03125 120.601562 86.386719 121.003906 Z M 86.386719 121.003906 "/>
<path style=" stroke:none;fill-rule:nonzero;fill:rgb(0%,0%,0%);fill-opacity:1;" d="M 90.386719 119.285156 C 89.910156 119.789062 89.941406 120.601562 90.445312 121.003906 C 91.289062 121.667969 92.429688 121.078125 92.429688 119.980469 C 92.429688 119.089844 91.023438 118.601562 90.386719 119.285156 Z M 90.386719 119.285156 "/>
<path style=" stroke:none;fill-rule:nonzero;fill:rgb(0%,0%,0%);fill-opacity:1;" d="M 145.011719 121.089844 L 145.011719 122.351562 L 144.273438 122.351562 C 143.578125 122.351562 143.53125 122.378906 143.53125 122.71875 C 143.53125 123.0625 143.578125 123.089844 144.273438 123.089844 L 145.011719 123.089844 L 145.011719 128.570312 L 145.902344 128.570312 L 145.929688 125.859375 L 145.976562 123.164062 L 146.761719 123.121094 C 147.457031 123.074219 147.53125 123.046875 147.53125 122.71875 C 147.53125 122.394531 147.457031 122.363281 146.761719 122.320312 L 145.976562 122.277344 L 145.929688 121.046875 L 145.886719 119.832031 L 145.011719 119.832031 Z M 145.011719 121.089844 "/>
<path style=" stroke:none;fill-rule:nonzero;fill:rgb(0%,0%,0%);fill-opacity:1;" d="M 25.507812 120.15625 C 25.09375 120.574219 25.492188 121.269531 26.054688 121.089844 C 26.425781 120.972656 26.558594 120.632812 26.367188 120.261719 C 26.1875 119.949219 25.773438 119.890625 25.507812 120.15625 Z M 25.507812 120.15625 "/>
<path style=" stroke:none;fill-rule:nonzero;fill:rgb(0%,0%,0%);fill-opacity:1;" d="M 39.992188 120.203125 C 39.609375 120.675781 40.1875 121.402344 40.703125 121.078125 C 41.207031 120.75 41.03125 119.980469 40.4375 119.980469 C 40.289062 119.980469 40.097656 120.082031 39.992188 120.203125 Z M 39.992188 120.203125 "/>
<path style=" stroke:none;fill-rule:nonzero;fill:rgb(0%,0%,0%);fill-opacity:1;" d="M 111.390625 121.164062 L 111.390625 122.351562 L 110.351562 122.351562 L 110.351562 123.832031 L 111.390625 123.832031 L 111.390625 128.570312 L 113.460938 128.570312 L 113.460938 123.832031 L 114.648438 123.832031 L 114.648438 122.351562 L 113.460938 122.351562 L 113.460938 119.980469 L 111.390625 119.980469 Z M 111.390625 121.164062 "/>
<path style=" stroke:none;fill-rule:nonzero;fill:rgb(0%,0%,0%);fill-opacity:1;" d="M 45.25 122.425781 C 45.015625 122.542969 44.660156 122.839844 44.480469 123.0625 L 44.140625 123.460938 L 44.140625 122.898438 C 44.140625 122.394531 44.109375 122.351562 43.695312 122.351562 L 43.253906 122.351562 L 43.253906 128.570312 L 44.140625 128.570312 L 44.140625 126.898438 C 44.140625 124.941406 44.289062 124.289062 44.894531 123.699219 C 45.679688 122.914062 47 122.957031 47.386719 123.773438 C 47.472656 123.996094 47.546875 125.03125 47.546875 126.347656 L 47.546875 128.570312 L 48.4375 128.570312 L 48.4375 126.230469 C 48.4375 123.683594 48.304688 123.179688 47.519531 122.601562 C 46.984375 122.21875 45.828125 122.113281 45.25 122.425781 Z M 45.25 122.425781 "/>
<path style=" stroke:none;fill-rule:nonzero;fill:rgb(0%,0%,0%);fill-opacity:1;" d="M 51.859375 122.542969 C 50.878906 123.046875 50.316406 123.933594 50.242188 125.074219 C 50.167969 126.203125 50.375 126.941406 50.984375 127.625 C 51.53125 128.230469 51.871094 128.4375 52.628906 128.585938 C 53.429688 128.71875 54.332031 128.484375 55 127.964844 L 55.546875 127.519531 L 55.546875 128.421875 C 55.546875 128.914062 55.457031 129.550781 55.339844 129.816406 C 54.789062 131.121094 53.042969 131.59375 51.917969 130.71875 C 51.605469 130.496094 51.28125 130.113281 51.191406 129.875 C 51.074219 129.535156 50.953125 129.460938 50.554688 129.460938 C 50.09375 129.460938 50.082031 129.476562 50.230469 129.859375 C 50.660156 131 51.488281 131.742188 52.582031 131.992188 C 53.8125 132.273438 55.175781 131.726562 55.929688 130.628906 L 56.359375 130.007812 L 56.40625 126.171875 L 56.449219 122.351562 L 55.992188 122.351562 C 55.574219 122.351562 55.546875 122.378906 55.546875 122.898438 L 55.546875 123.445312 L 55.144531 123.046875 C 54.226562 122.171875 52.910156 121.964844 51.859375 122.542969 Z M 54.375 123.429688 C 55.234375 124.007812 55.574219 124.675781 55.515625 125.578125 C 55.265625 128.542969 51.101562 128.363281 51.101562 125.402344 C 51.101562 123.625 52.984375 122.484375 54.375 123.429688 Z M 54.375 123.429688 "/>
<path style=" stroke:none;fill-rule:nonzero;fill:rgb(0%,0%,0%);fill-opacity:1;" d="M 64.035156 122.453125 C 62.820312 123.121094 62.226562 124.113281 62.210938 125.445312 C 62.210938 128.066406 65.011719 129.550781 66.996094 127.964844 L 67.542969 127.519531 L 67.542969 128.054688 C 67.542969 128.527344 67.574219 128.570312 67.988281 128.570312 L 68.433594 128.570312 L 68.433594 122.351562 L 67.988281 122.351562 C 67.574219 122.351562 67.542969 122.394531 67.542969 122.882812 L 67.542969 123.417969 L 66.953125 122.898438 C 66.078125 122.15625 64.90625 121.980469 64.035156 122.453125 Z M 66.34375 123.402344 C 67.101562 123.832031 67.441406 124.363281 67.515625 125.238281 C 67.632812 126.644531 66.683594 127.710938 65.324219 127.710938 C 63.574219 127.710938 62.539062 125.832031 63.410156 124.277344 C 64.019531 123.195312 65.308594 122.808594 66.34375 123.402344 Z M 66.34375 123.402344 "/>
<path style=" stroke:none;fill-rule:nonzero;fill:rgb(0%,0%,0%);fill-opacity:1;" d="M 95.539062 122.527344 C 93.378906 123.640625 93.183594 126.75 95.183594 128.113281 C 96.148438 128.777344 97.644531 128.777344 98.515625 128.140625 C 99.066406 127.742188 99.09375 127.742188 99.09375 128.304688 C 99.09375 129.503906 98.546875 130.363281 97.644531 130.601562 C 97.167969 130.71875 96.324219 130.304688 96.101562 129.832031 C 95.953125 129.488281 95.867188 129.460938 94.917969 129.460938 C 93.761719 129.460938 93.703125 129.5625 94.222656 130.496094 C 94.859375 131.636719 96.621094 132.304688 98.160156 131.992188 C 99.273438 131.769531 100.160156 131.121094 100.636719 130.171875 C 101.019531 129.402344 101.019531 129.371094 101.019531 125.875 L 101.019531 122.351562 L 100.058594 122.351562 C 99.109375 122.351562 99.09375 122.363281 99.09375 122.75 C 99.09375 123.105469 99.078125 123.121094 98.828125 122.898438 C 98.011719 122.15625 96.578125 122.007812 95.539062 122.527344 Z M 98.339844 124.070312 C 99.390625 124.808594 99.167969 126.496094 97.9375 126.957031 C 96.710938 127.429688 95.523438 125.90625 96.148438 124.675781 C 96.5625 123.859375 97.628906 123.578125 98.339844 124.070312 Z M 98.339844 124.070312 "/>
<path style=" stroke:none;fill-rule:nonzero;fill:rgb(0%,0%,0%);fill-opacity:1;" d="M 117.535156 122.484375 C 116.824219 122.808594 116.070312 123.578125 115.832031 124.203125 C 115.625 124.765625 115.609375 125.992188 115.816406 126.558594 C 116.277344 127.726562 117.285156 128.4375 118.648438 128.542969 C 119.816406 128.617188 120.527344 128.320312 121.3125 127.429688 L 121.816406 126.867188 L 121.253906 126.824219 C 120.855469 126.792969 120.585938 126.851562 120.367188 127.0625 C 119.269531 128.054688 117.625 127.84375 116.871094 126.617188 C 116.335938 125.742188 116.320312 125.757812 119.3125 125.757812 L 122.054688 125.757812 L 122.054688 125.195312 C 122.039062 124.070312 121.195312 122.898438 120.023438 122.394531 C 119.359375 122.128906 118.230469 122.15625 117.535156 122.484375 Z M 119.816406 123.3125 C 120.367188 123.59375 121.015625 124.363281 121.015625 124.734375 C 121.015625 125 120.882812 125.015625 118.78125 125.015625 L 116.558594 125.015625 L 116.664062 124.675781 C 117.0625 123.417969 118.675781 122.707031 119.816406 123.3125 Z M 119.816406 123.3125 "/>
<path style=" stroke:none;fill-rule:nonzero;fill:rgb(0%,0%,0%);fill-opacity:1;" d="M 125.636719 122.4375 C 125.445312 122.574219 125.164062 122.882812 125 123.148438 L 124.71875 123.609375 L 124.71875 122.972656 C 124.71875 122.378906 124.707031 122.351562 124.277344 122.351562 L 123.832031 122.351562 L 123.832031 128.570312 L 124.71875 128.570312 L 124.71875 126.851562 C 124.71875 124.839844 124.898438 124.097656 125.519531 123.578125 C 125.859375 123.285156 126.066406 123.222656 126.46875 123.285156 C 126.957031 123.371094 126.957031 123.371094 126.914062 122.824219 C 126.867188 122.335938 126.824219 122.277344 126.421875 122.230469 C 126.1875 122.21875 125.816406 122.304688 125.636719 122.4375 Z M 125.636719 122.4375 "/>
<path style=" stroke:none;fill-rule:nonzero;fill:rgb(0%,0%,0%);fill-opacity:1;" d="M 158.105469 122.363281 C 157.929688 122.453125 157.648438 122.765625 157.484375 123.0625 L 157.160156 123.609375 L 157.160156 122.972656 C 157.160156 122.378906 157.144531 122.351562 156.714844 122.351562 L 156.269531 122.351562 L 156.269531 128.570312 L 157.160156 128.570312 L 157.160156 126.691406 C 157.160156 125.121094 157.203125 124.71875 157.457031 124.203125 C 157.8125 123.460938 158.300781 123.164062 158.9375 123.285156 C 159.394531 123.386719 159.394531 123.371094 159.351562 122.824219 C 159.308594 122.335938 159.261719 122.277344 158.863281 122.246094 C 158.625 122.230469 158.285156 122.289062 158.105469 122.363281 Z M 158.105469 122.363281 "/>
<path style=" stroke:none;fill-rule:nonzero;fill:rgb(0%,0%,0%);fill-opacity:1;" d="M 162.078125 122.511719 C 159.617188 123.742188 159.707031 127.28125 162.226562 128.335938 C 163.484375 128.867188 165.21875 128.46875 165.972656 127.476562 C 166.179688 127.207031 166.34375 126.941406 166.34375 126.898438 C 166.34375 126.632812 165.378906 126.839844 164.9375 127.179688 C 164.402344 127.578125 163.5 127.785156 162.875 127.625 C 162.34375 127.488281 161.515625 126.71875 161.320312 126.203125 L 161.171875 125.757812 L 163.988281 125.757812 C 165.660156 125.757812 166.789062 125.699219 166.789062 125.609375 C 166.789062 125.535156 166.714844 125.136719 166.625 124.707031 C 166.195312 122.75 163.882812 121.625 162.078125 122.511719 Z M 164.519531 123.328125 C 165.023438 123.578125 165.75 124.453125 165.75 124.824219 C 165.75 124.972656 165.21875 125.015625 163.527344 125.015625 C 161.453125 125.015625 161.308594 125 161.308594 124.734375 C 161.308594 124.585938 161.453125 124.277344 161.632812 124.054688 C 162.359375 123.121094 163.484375 122.839844 164.519531 123.328125 Z M 164.519531 123.328125 "/>
<path style=" stroke:none;fill-rule:nonzero;fill:rgb(0%,0%,0%);fill-opacity:1;" d="M 18.070312 124.277344 C 18.070312 126.765625 18.234375 127.535156 18.902344 128.128906 C 19.34375 128.511719 19.523438 128.570312 20.261719 128.570312 C 21.136719 128.570312 21.996094 128.199219 22.160156 127.757812 C 22.320312 127.355469 22.515625 127.519531 22.515625 128.054688 C 22.515625 128.527344 22.542969 128.570312 22.960938 128.570312 L 23.402344 128.570312 L 23.402344 122.351562 L 22.515625 122.351562 L 22.515625 123.757812 C 22.515625 125.683594 22.292969 126.601562 21.699219 127.195312 C 21.285156 127.609375 21.109375 127.683594 20.484375 127.683594 C 20.085938 127.683594 19.640625 127.59375 19.492188 127.488281 C 19.109375 127.207031 18.976562 126.335938 18.960938 124.230469 L 18.960938 122.351562 L 18.070312 122.351562 Z M 18.070312 124.277344 "/>
<path style=" stroke:none;fill-rule:nonzero;fill:rgb(0%,0%,0%);fill-opacity:1;" d="M 25.476562 125.460938 L 25.476562 128.570312 L 26.367188 128.570312 L 26.367188 122.351562 L 25.476562 122.351562 Z M 25.476562 125.460938 "/>
<path style=" stroke:none;fill-rule:nonzero;fill:rgb(0%,0%,0%);fill-opacity:1;" d="M 39.992188 125.460938 L 39.992188 128.570312 L 40.882812 128.570312 L 40.882812 122.351562 L 39.992188 122.351562 Z M 39.992188 125.460938 "/>
<path style=" stroke:none;fill-rule:nonzero;fill:rgb(0%,0%,0%);fill-opacity:1;" d="M 90.207031 125.460938 L 90.207031 128.570312 L 92.28125 128.570312 L 92.28125 122.351562 L 90.207031 122.351562 Z M 90.207031 125.460938 "/>
<path style=" stroke:none;fill-rule:nonzero;fill:rgb(0%,0%,0%);fill-opacity:1;" d="M 137.042969 124.75 C 137.074219 126.792969 137.132812 127.238281 137.371094 127.625 C 137.769531 128.273438 138.332031 128.570312 139.238281 128.570312 C 140.109375 128.570312 140.511719 128.410156 140.96875 127.859375 L 141.308594 127.460938 L 141.308594 128.007812 C 141.308594 128.527344 141.339844 128.570312 141.753906 128.570312 L 142.199219 128.570312 L 142.199219 122.351562 L 141.308594 122.351562 L 141.308594 124.171875 C 141.308594 125.757812 141.265625 126.066406 140.984375 126.644531 C 140.570312 127.460938 140.125 127.699219 139.164062 127.652344 C 138.480469 127.609375 138.40625 127.5625 138.167969 127.089844 C 137.949219 126.675781 137.902344 126.171875 137.902344 124.453125 L 137.902344 122.351562 L 136.984375 122.351562 Z M 137.042969 124.75 "/>
<path style=" stroke:none;fill-rule:nonzero;fill:rgb(0%,0%,0%);fill-opacity:1;" d="M 149.011719 124.601562 C 149.011719 126.511719 149.058594 126.972656 149.292969 127.488281 C 149.648438 128.261719 150.226562 128.570312 151.292969 128.570312 C 152.035156 128.570312 152.183594 128.511719 152.714844 128.039062 L 153.308594 127.503906 L 153.308594 128.039062 C 153.308594 128.527344 153.335938 128.570312 153.753906 128.570312 L 154.195312 128.570312 L 154.195312 122.351562 L 153.335938 122.351562 L 153.277344 124.304688 C 153.21875 126.496094 153.042969 127.0625 152.269531 127.460938 C 151.621094 127.800781 150.597656 127.757812 150.257812 127.371094 C 150.003906 127.105469 149.976562 126.777344 149.929688 124.707031 L 149.886719 122.351562 L 149.011719 122.351562 Z M 149.011719 124.601562 "/>
<path style=" stroke:none;fill-rule:nonzero;fill:rgb(0%,0%,0%);fill-opacity:1;" d="M 168.933594 127.121094 C 168.90625 127.222656 168.714844 128.023438 168.519531 128.898438 C 168.195312 130.378906 168.179688 130.496094 168.417969 130.496094 C 168.667969 130.496094 168.90625 130.039062 170 127.417969 L 170.195312 126.941406 L 169.601562 126.941406 C 169.246094 126.941406 168.980469 127.015625 168.933594 127.121094 Z M 168.933594 127.121094 "/>
<path style=" stroke:none;fill-rule:nonzero;fill:rgb(0%,0%,0%);fill-opacity:1;" d="M 46.214844 140.421875 L 46.214844 145.753906 L 47.074219 145.753906 L 47.132812 143.785156 C 47.191406 141.664062 47.371094 141.085938 48.066406 140.628906 C 48.671875 140.230469 49.636719 140.183594 50.066406 140.539062 C 50.4375 140.835938 50.4375 140.878906 50.480469 143.296875 L 50.523438 145.753906 L 51.398438 145.753906 L 51.398438 143.324219 C 51.398438 141.058594 51.382812 140.878906 51.058594 140.40625 C 50.480469 139.53125 49.207031 139.132812 48.390625 139.546875 C 48.214844 139.636719 47.84375 139.917969 47.59375 140.167969 L 47.101562 140.628906 L 47.101562 135.089844 L 46.214844 135.089844 Z M 46.214844 140.421875 "/>
<path style=" stroke:none;fill-rule:nonzero;fill:rgb(0%,0%,0%);fill-opacity:1;" d="M 56.730469 140.421875 L 56.730469 145.753906 L 57.621094 145.753906 L 57.621094 135.089844 L 56.730469 135.089844 Z M 56.730469 140.421875 "/>
<path style=" stroke:none;fill-rule:nonzero;fill:rgb(0%,0%,0%);fill-opacity:1;" d="M 64.878906 137.84375 L 64.878906 140.597656 L 64.269531 140.066406 C 63.621094 139.503906 62.730469 139.28125 61.902344 139.445312 C 60.613281 139.695312 59.546875 141.148438 59.546875 142.628906 C 59.546875 145.265625 62.34375 146.730469 64.332031 145.144531 L 64.878906 144.703125 L 64.878906 145.234375 C 64.878906 145.710938 64.90625 145.753906 65.324219 145.753906 L 65.765625 145.753906 L 65.765625 135.089844 L 64.878906 135.089844 Z M 63.679688 140.585938 C 64.433594 141.015625 64.773438 141.546875 64.847656 142.421875 C 64.96875 143.828125 64.019531 144.894531 62.65625 144.894531 C 60.910156 144.894531 59.871094 143.011719 60.746094 141.457031 C 61.351562 140.375 62.640625 139.992188 63.679688 140.585938 Z M 63.679688 140.585938 "/>
<path style=" stroke:none;fill-rule:nonzero;fill:rgb(0%,0%,0%);fill-opacity:1;" d="M 67.691406 135.636719 C 67.691406 135.949219 67.738281 136.746094 67.796875 137.414062 C 67.871094 138.480469 67.914062 138.644531 68.167969 138.644531 C 68.523438 138.644531 68.535156 138.570312 68.65625 136.671875 L 68.746094 135.089844 L 68.226562 135.089844 C 67.707031 135.089844 67.691406 135.105469 67.691406 135.636719 Z M 67.691406 135.636719 "/>
<path style=" stroke:none;fill-rule:nonzero;fill:rgb(0%,0%,0%);fill-opacity:1;" d="M 100.132812 140.421875 L 100.132812 145.753906 L 101.019531 145.753906 L 101.019531 135.089844 L 100.132812 135.089844 Z M 100.132812 140.421875 "/>
<path style=" stroke:none;fill-rule:nonzero;fill:rgb(0%,0%,0%);fill-opacity:1;" d="M 123.832031 138.273438 L 123.832031 139.53125 L 123.015625 139.53125 C 122.246094 139.53125 122.203125 139.546875 122.203125 139.886719 C 122.203125 140.230469 122.261719 140.257812 122.988281 140.304688 L 123.757812 140.347656 L 123.800781 143.042969 L 123.832031 145.753906 L 124.71875 145.753906 L 124.71875 140.273438 L 125.460938 140.273438 C 126.15625 140.273438 126.203125 140.242188 126.203125 139.902344 C 126.203125 139.5625 126.15625 139.53125 125.460938 139.53125 L 124.71875 139.53125 L 124.71875 137.015625 L 123.832031 137.015625 Z M 123.832031 138.273438 "/>
<path style=" stroke:none;fill-rule:nonzero;fill:rgb(0%,0%,0%);fill-opacity:1;" d="M 144.273438 138.273438 L 144.273438 139.53125 L 143.53125 139.53125 C 142.835938 139.53125 142.792969 139.5625 142.792969 139.902344 C 142.792969 140.242188 142.835938 140.273438 143.53125 140.273438 L 144.273438 140.273438 L 144.273438 145.753906 L 145.160156 145.753906 L 145.191406 143.042969 L 145.234375 140.347656 L 146.019531 140.304688 C 146.714844 140.257812 146.789062 140.230469 146.789062 139.902344 C 146.789062 139.578125 146.714844 139.546875 146.019531 139.503906 L 145.234375 139.457031 L 145.191406 138.230469 L 145.144531 137.015625 L 144.273438 137.015625 Z M 144.273438 138.273438 "/>
<path style=" stroke:none;fill-rule:nonzero;fill:rgb(0%,0%,0%);fill-opacity:1;" d="M 53.652344 137.296875 C 53.382812 137.457031 53.472656 138.050781 53.796875 138.242188 C 54.109375 138.453125 54.507812 138.140625 54.507812 137.679688 C 54.507812 137.238281 54.050781 137.027344 53.652344 137.296875 Z M 53.652344 137.296875 "/>
<path style=" stroke:none;fill-rule:nonzero;fill:rgb(0%,0%,0%);fill-opacity:1;" d="M 96.902344 137.339844 C 96.488281 137.753906 96.886719 138.453125 97.449219 138.273438 C 97.820312 138.15625 97.953125 137.8125 97.761719 137.445312 C 97.582031 137.132812 97.167969 137.074219 96.902344 137.339844 Z M 96.902344 137.339844 "/>
<path style=" stroke:none;fill-rule:nonzero;fill:rgb(0%,0%,0%);fill-opacity:1;" d="M 148.273438 137.445312 C 148.078125 137.8125 148.210938 138.15625 148.582031 138.273438 C 149.144531 138.453125 149.546875 137.753906 149.132812 137.339844 C 148.863281 137.074219 148.449219 137.132812 148.273438 137.445312 Z M 148.273438 137.445312 "/>
<path style=" stroke:none;fill-rule:nonzero;fill:rgb(0%,0%,0%);fill-opacity:1;" d="M 13.628906 139.578125 C 12.753906 140.050781 12.414062 140.363281 12.027344 141 C 11.199219 142.40625 11.628906 144.257812 13.003906 145.234375 C 13.597656 145.636719 13.761719 145.679688 14.8125 145.679688 C 15.863281 145.679688 16.027344 145.636719 16.621094 145.234375 C 18.5 143.902344 18.472656 141.175781 16.558594 139.902344 C 16.054688 139.5625 15.714844 139.457031 14.960938 139.414062 C 14.339844 139.382812 13.863281 139.445312 13.628906 139.578125 Z M 16.117188 140.671875 C 16.839844 141.222656 17.109375 141.726562 17.109375 142.570312 C 17.109375 143.871094 16.117188 144.863281 14.8125 144.863281 C 13.507812 144.863281 12.53125 143.886719 12.53125 142.582031 C 12.53125 141.175781 13.582031 140.214844 15.003906 140.316406 C 15.40625 140.363281 15.894531 140.511719 16.117188 140.671875 Z M 16.117188 140.671875 "/>
<path style=" stroke:none;fill-rule:nonzero;fill:rgb(0%,0%,0%);fill-opacity:1;" d="M 21.996094 139.5625 C 21.832031 139.652344 21.476562 139.917969 21.226562 140.167969 L 20.738281 140.628906 L 20.738281 140.082031 C 20.738281 139.578125 20.707031 139.53125 20.292969 139.53125 L 19.847656 139.53125 L 19.847656 145.753906 L 20.738281 145.753906 L 20.738281 144.152344 C 20.738281 142.257812 20.898438 141.605469 21.539062 140.910156 C 22.144531 140.242188 23.121094 140.082031 23.699219 140.539062 C 24.070312 140.835938 24.070312 140.878906 24.113281 143.296875 L 24.160156 145.753906 L 25.03125 145.753906 L 25.03125 143.324219 C 25.03125 141.058594 25.019531 140.878906 24.691406 140.40625 C 24.113281 139.53125 22.78125 139.117188 21.996094 139.5625 Z M 21.996094 139.5625 "/>
<path style=" stroke:none;fill-rule:nonzero;fill:rgb(0%,0%,0%);fill-opacity:1;" d="M 28.660156 139.664062 C 27.949219 139.992188 27.195312 140.761719 26.957031 141.382812 C 26.75 141.945312 26.738281 143.175781 26.945312 143.738281 C 27.402344 144.910156 28.410156 145.621094 29.773438 145.722656 C 30.941406 145.796875 31.652344 145.503906 32.4375 144.613281 L 32.941406 144.050781 L 32.378906 144.007812 C 31.980469 143.976562 31.714844 144.035156 31.492188 144.242188 C 30.394531 145.234375 28.75 145.027344 27.996094 143.796875 C 27.460938 142.925781 27.449219 142.9375 30.4375 142.9375 L 33.179688 142.9375 L 33.179688 142.375 C 33.164062 141.25 32.320312 140.082031 31.152344 139.578125 C 30.484375 139.308594 29.359375 139.339844 28.660156 139.664062 Z M 30.941406 140.496094 C 31.492188 140.777344 32.144531 141.546875 32.144531 141.917969 C 32.144531 142.183594 32.007812 142.199219 29.90625 142.199219 L 27.683594 142.199219 L 27.789062 141.859375 C 28.1875 140.597656 29.800781 139.886719 30.941406 140.496094 Z M 30.941406 140.496094 "/>
<path style=" stroke:none;fill-rule:nonzero;fill:rgb(0%,0%,0%);fill-opacity:1;" d="M 40.511719 139.5625 C 38.320312 140.347656 37.667969 143.191406 39.296875 144.863281 C 40.46875 146.066406 42.40625 146.109375 43.667969 144.953125 C 43.992188 144.671875 44.4375 143.960938 44.4375 143.753906 C 44.4375 143.710938 44.230469 143.679688 43.976562 143.679688 C 43.667969 143.679688 43.429688 143.796875 43.222656 144.050781 C 42.257812 145.28125 40.335938 145.085938 39.59375 143.679688 C 39.179688 142.910156 39.164062 142.464844 39.535156 141.652344 C 40.199219 140.214844 42.050781 139.917969 43.089844 141.085938 C 43.414062 141.472656 43.667969 141.605469 43.992188 141.605469 C 44.628906 141.605469 44.554688 141.296875 43.742188 140.4375 C 42.792969 139.457031 41.667969 139.164062 40.511719 139.5625 Z M 40.511719 139.5625 "/>
<path style=" stroke:none;fill-rule:nonzero;fill:rgb(0%,0%,0%);fill-opacity:1;" d="M 71.160156 139.59375 C 70.492188 139.886719 70.0625 140.511719 70.0625 141.160156 C 70.0625 142.050781 70.492188 142.4375 71.929688 142.878906 C 72.625 143.085938 73.320312 143.382812 73.484375 143.546875 C 74.179688 144.242188 73.515625 145.160156 72.3125 145.160156 C 71.75 145.160156 71.589844 145.085938 71.160156 144.644531 C 70.847656 144.316406 70.535156 144.125 70.300781 144.125 C 69.855469 144.125 69.824219 144.273438 70.136719 144.863281 C 70.597656 145.738281 72.195312 146.140625 73.394531 145.695312 C 74.269531 145.355469 74.65625 144.851562 74.65625 144.035156 C 74.65625 143.058594 74.179688 142.613281 72.742188 142.199219 C 72.019531 141.992188 71.441406 141.726562 71.234375 141.515625 C 70.253906 140.480469 72.179688 139.546875 73.203125 140.570312 C 73.484375 140.867188 73.796875 141.015625 74.078125 141.015625 C 74.507812 141.015625 74.507812 141.015625 74.3125 140.539062 C 74.210938 140.289062 73.957031 139.949219 73.75 139.785156 C 73.246094 139.414062 71.78125 139.296875 71.160156 139.59375 Z M 71.160156 139.59375 "/>
<path style=" stroke:none;fill-rule:nonzero;fill:rgb(0%,0%,0%);fill-opacity:1;" d="M 80.785156 139.59375 C 80.121094 139.886719 79.691406 140.511719 79.691406 141.160156 C 79.691406 142.050781 80.121094 142.4375 81.558594 142.878906 C 82.253906 143.085938 82.949219 143.382812 83.113281 143.546875 C 83.808594 144.242188 83.140625 145.160156 81.941406 145.160156 C 81.378906 145.160156 81.214844 145.085938 80.785156 144.644531 C 80.476562 144.316406 80.164062 144.125 79.925781 144.125 C 79.484375 144.125 79.453125 144.273438 79.765625 144.863281 C 80.222656 145.738281 81.824219 146.140625 83.023438 145.695312 C 83.898438 145.355469 84.28125 144.851562 84.28125 144.035156 C 84.28125 143.058594 83.808594 142.613281 82.371094 142.199219 C 81.644531 141.992188 81.066406 141.726562 80.859375 141.515625 C 79.882812 140.480469 81.808594 139.546875 82.832031 140.570312 C 83.113281 140.867188 83.421875 141.015625 83.703125 141.015625 C 84.132812 141.015625 84.132812 141.015625 83.941406 140.539062 C 83.839844 140.289062 83.585938 139.949219 83.378906 139.785156 C 82.875 139.414062 81.410156 139.296875 80.785156 139.59375 Z M 80.785156 139.59375 "/>
<path style=" stroke:none;fill-rule:nonzero;fill:rgb(0%,0%,0%);fill-opacity:1;" d="M 87.394531 139.917969 L 86.800781 140.449219 L 86.800781 139.992188 C 86.800781 139.578125 86.757812 139.53125 86.355469 139.53125 L 85.910156 139.53125 L 85.910156 145.605469 L 86.800781 145.605469 L 86.800781 143.960938 C 86.800781 143.042969 86.875 142.050781 86.976562 141.726562 C 87.332031 140.539062 88.667969 139.886719 89.453125 140.523438 C 89.910156 140.894531 90.042969 141.695312 90.058594 143.785156 L 90.058594 145.605469 L 90.949219 145.605469 L 90.949219 141.28125 L 91.464844 140.761719 C 91.910156 140.316406 92.058594 140.257812 92.59375 140.304688 C 93.066406 140.332031 93.289062 140.4375 93.523438 140.761719 C 93.808594 141.132812 93.835938 141.429688 93.878906 143.398438 L 93.925781 145.605469 L 94.828125 145.605469 L 94.769531 143.265625 C 94.726562 141.382812 94.664062 140.851562 94.457031 140.449219 C 94.089844 139.769531 93.390625 139.382812 92.546875 139.382812 C 91.941406 139.382812 91.746094 139.457031 91.246094 139.933594 L 90.636719 140.464844 L 90.414062 140.15625 C 90.074219 139.664062 89.421875 139.382812 88.667969 139.382812 C 88.089844 139.382812 87.898438 139.472656 87.394531 139.917969 Z M 87.394531 139.917969 "/>
<path style=" stroke:none;fill-rule:nonzero;fill:rgb(0%,0%,0%);fill-opacity:1;" d="M 104.648438 139.664062 C 102.144531 140.820312 102.207031 144.464844 104.753906 145.515625 C 106.027344 146.050781 107.480469 145.695312 108.425781 144.613281 L 108.929688 144.050781 L 108.457031 144.007812 C 108.128906 143.976562 107.835938 144.078125 107.464844 144.363281 C 106.160156 145.355469 104.234375 144.777344 103.777344 143.265625 L 103.671875 142.9375 L 109.167969 142.9375 L 109.167969 142.363281 C 109.167969 141.589844 108.988281 141.160156 108.398438 140.496094 C 107.480469 139.429688 105.894531 139.089844 104.648438 139.664062 Z M 107.109375 140.613281 C 107.582031 140.925781 108.277344 141.800781 108.277344 142.066406 C 108.277344 142.140625 107.242188 142.199219 105.984375 142.199219 C 104.722656 142.199219 103.6875 142.140625 103.6875 142.066406 C 103.6875 141.800781 104.382812 140.925781 104.855469 140.613281 C 105.183594 140.390625 105.582031 140.273438 105.984375 140.273438 C 106.382812 140.273438 106.78125 140.390625 107.109375 140.613281 Z M 107.109375 140.613281 "/>
<path style=" stroke:none;fill-rule:nonzero;fill:rgb(0%,0%,0%);fill-opacity:1;" d="M 116.160156 139.695312 C 115.046875 140.242188 114.46875 141.265625 114.484375 142.671875 C 114.484375 143.902344 115.152344 145.011719 116.1875 145.5625 C 117.105469 146.035156 118.617188 145.769531 119.507812 144.96875 L 119.832031 144.671875 L 119.832031 145.207031 C 119.832031 145.710938 119.863281 145.753906 120.277344 145.753906 L 120.722656 145.753906 L 120.722656 139.53125 L 120.277344 139.53125 C 119.863281 139.53125 119.832031 139.578125 119.832031 140.082031 L 119.832031 140.628906 L 119.433594 140.230469 C 118.527344 139.371094 117.238281 139.164062 116.160156 139.695312 Z M 118.484375 140.496094 C 119.90625 141.222656 120.246094 143.058594 119.195312 144.183594 C 118.246094 145.175781 116.898438 145.160156 115.953125 144.140625 C 115.433594 143.589844 115.386719 143.472656 115.386719 142.671875 C 115.386719 142.007812 115.460938 141.679688 115.730469 141.308594 C 116.351562 140.390625 117.582031 140.019531 118.484375 140.496094 Z M 118.484375 140.496094 "/>
<path style=" stroke:none;fill-rule:nonzero;fill:rgb(0%,0%,0%);fill-opacity:1;" d="M 133.015625 139.621094 C 131.207031 140.40625 130.570312 142.761719 131.695312 144.464844 C 132.703125 145.992188 134.910156 146.273438 136.035156 145.027344 C 136.4375 144.582031 136.570312 144.644531 136.570312 145.234375 C 136.570312 145.710938 136.601562 145.753906 137.015625 145.753906 L 137.457031 145.753906 L 137.457031 139.53125 L 137.015625 139.53125 C 136.601562 139.53125 136.570312 139.578125 136.570312 140.082031 L 136.570312 140.628906 L 136.171875 140.230469 C 135.3125 139.429688 134.039062 139.175781 133.015625 139.621094 Z M 135.148438 140.480469 C 135.800781 140.746094 136.378906 141.53125 136.511719 142.300781 C 136.585938 142.777344 136.527344 143.074219 136.273438 143.589844 C 135.445312 145.324219 133.117188 145.339844 132.289062 143.621094 C 131.917969 142.867188 131.902344 142.511719 132.199219 141.800781 C 132.75 140.480469 133.917969 139.960938 135.148438 140.480469 Z M 135.148438 140.480469 "/>
<path style=" stroke:none;fill-rule:nonzero;fill:rgb(0%,0%,0%);fill-opacity:1;" d="M 153.011719 139.917969 L 152.417969 140.449219 L 152.417969 139.992188 C 152.417969 139.578125 152.375 139.53125 151.976562 139.53125 L 151.53125 139.53125 L 151.53125 145.605469 L 152.417969 145.605469 L 152.417969 143.960938 C 152.417969 143.042969 152.492188 142.050781 152.597656 141.726562 C 152.953125 140.539062 154.285156 139.886719 155.070312 140.523438 C 155.53125 140.894531 155.664062 141.695312 155.679688 143.785156 L 155.679688 145.605469 L 156.566406 145.605469 L 156.566406 141.28125 L 157.085938 140.761719 C 157.53125 140.316406 157.679688 140.257812 158.210938 140.304688 C 158.683594 140.332031 158.90625 140.4375 159.144531 140.761719 C 159.425781 141.132812 159.457031 141.429688 159.5 143.398438 L 159.542969 145.605469 L 160.449219 145.605469 L 160.386719 143.265625 C 160.34375 141.382812 160.285156 140.851562 160.078125 140.449219 C 159.707031 139.769531 159.011719 139.382812 158.167969 139.382812 C 157.558594 139.382812 157.367188 139.457031 156.863281 139.933594 L 156.253906 140.464844 L 156.035156 140.15625 C 155.691406 139.664062 155.042969 139.382812 154.285156 139.382812 C 153.707031 139.382812 153.515625 139.472656 153.011719 139.917969 Z M 153.011719 139.917969 "/>
<path style=" stroke:none;fill-rule:nonzero;fill:rgb(0%,0%,0%);fill-opacity:1;" d="M 163.898438 139.664062 C 161.394531 140.820312 161.453125 144.464844 164.003906 145.515625 C 165.277344 146.050781 166.726562 145.695312 167.675781 144.613281 L 168.179688 144.050781 L 167.707031 144.007812 C 167.378906 143.976562 167.082031 144.078125 166.714844 144.363281 C 165.410156 145.355469 163.484375 144.777344 163.023438 143.265625 L 162.921875 142.9375 L 168.417969 142.9375 L 168.417969 142.363281 C 168.417969 141.589844 168.238281 141.160156 167.644531 140.496094 C 166.726562 139.429688 165.144531 139.089844 163.898438 139.664062 Z M 166.359375 140.613281 C 166.832031 140.925781 167.527344 141.800781 167.527344 142.066406 C 167.527344 142.140625 166.492188 142.199219 165.230469 142.199219 C 163.972656 142.199219 162.9375 142.140625 162.9375 142.066406 C 162.9375 141.800781 163.632812 140.925781 164.105469 140.613281 C 164.433594 140.390625 164.832031 140.273438 165.230469 140.273438 C 165.632812 140.273438 166.03125 140.390625 166.359375 140.613281 Z M 166.359375 140.613281 "/>
<path style=" stroke:none;fill-rule:nonzero;fill:rgb(0%,0%,0%);fill-opacity:1;" d="M 53.621094 142.644531 L 53.621094 145.753906 L 54.507812 145.753906 L 54.507812 139.53125 L 53.621094 139.53125 Z M 53.621094 142.644531 "/>
<path style=" stroke:none;fill-rule:nonzero;fill:rgb(0%,0%,0%);fill-opacity:1;" d="M 96.871094 142.644531 L 96.871094 145.753906 L 97.761719 145.753906 L 97.761719 139.53125 L 96.871094 139.53125 Z M 96.871094 142.644531 "/>
<path style=" stroke:none;fill-rule:nonzero;fill:rgb(0%,0%,0%);fill-opacity:1;" d="M 148.273438 142.644531 L 148.273438 145.753906 L 149.160156 145.753906 L 149.160156 139.53125 L 148.273438 139.53125 Z M 148.273438 142.644531 "/>
</g>
</svg>
